<?xml version="1.0" standalone="no"?><!DOCTYPE svg PUBLIC "-//W3C//DTD SVG 1.1//EN" "http://www.w3.org/Graphics/SVG/1.1/DTD/svg11.dtd"><svg t="1597924590376" class="icon" viewBox="0 0 1024 1024" version="1.1" xmlns="http://www.w3.org/2000/svg" p-id="14352" xmlns:xlink="http://www.w3.org/1999/xlink" width="200" height="200"><defs><style type="text/css"></style></defs><path d="M891.259259 37.925926H132.740741a94.814815 94.814815 0 0 0-94.814815 94.814815v758.518518a94.814815 94.814815 0 0 0 94.814815 94.814815h758.518518a94.814815 94.814815 0 0 0 94.814815-94.814815V132.740741a94.814815 94.814815 0 0 0-94.814815-94.814815z m56.888889 853.333333a56.888889 56.888889 0 0 1-56.888889 56.888889H132.740741a56.888889 56.888889 0 0 1-56.888889-56.888889V132.740741a56.888889 56.888889 0 0 1 56.888889-56.888889h758.518518a56.888889 56.888889 0 0 1 56.888889 56.888889z" fill="#FFB53E" p-id="14353"></path><path d="M753.208889 438.613333H328.817778l123.448889-112.45037a18.962963 18.962963 0 1 0-25.6-28.065185l-159.668148 145.445926a18.962963 18.962963 0 0 0 12.705185 32.995555h474.074074a18.962963 18.962963 0 0 0 0-37.925926zM744.106667 547.65037h-474.074074a18.962963 18.962963 0 0 0 0 37.925926h425.149629l-123.448889 112.260741a18.962963 18.962963 0 1 0 25.6 28.065185l159.668148-145.445926a18.962963 18.962963 0 0 0-12.705185-32.995555z" fill="#FFB53E" p-id="14354"></path></svg>